<?xml version="1.0" encoding="utf-8"?>
<!-- Generator: Adobe Illustrator 24.2.3, SVG Export Plug-In . SVG Version: 6.00 Build 0)  -->
<svg version="1.1" id="Layer_1" xmlns="http://www.w3.org/2000/svg" xmlns:xlink="http://www.w3.org/1999/xlink" x="0px" y="0px"
	 viewBox="0 0 100 100" style="enable-background:new 0 0 100 100;" xml:space="preserve">
<style type="text/css">
	.st0{fill:#4274F5;}
	.st1{fill:#FDFEFE;}
</style>
<circle class="st0" cx="49.8" cy="49.8" r="49.8"/>
<path class="st1" d="M52,82.2C37.2,82.3,25,73.6,21,60c-3.6-12.5-1.2-23.8,8.1-33.2c5.4-5.5,12.2-8.2,19.8-8.8
	c6.5-0.5,12.8,0.2,18.7,3c3.2,1.5,5.9,3.5,8.5,5.9c0.4,0.4,0.4,0.6,0,1c-2.6,3-5.2,6-7.8,9c-0.4,0.5-0.7,0.4-1.1,0
	c-2.7-2.4-5.6-4.4-9-5.5c-7.2-2.2-13.6-1-19,4.5c-3.1,3.1-4.7,7-5.2,11.3c-0.6,5.3,0.4,10.3,3.5,14.7c4,5.7,9.6,8.1,16.5,7.5
	c5.2-0.4,9.4-2.9,13.2-6.2c1.1-1,1.1-1,2.2,0.1c2.4,2.4,4.7,4.8,7.1,7.2c0.4,0.4,0.5,0.7,0,1.2c-5.1,5.4-11.1,9-18.5,10.1
	C55.9,82.1,53.8,82.2,52,82.2z"/>
</svg>
