<svg id="F" xmlns="http://www.w3.org/2000/svg" viewBox="0 0 24 24"><defs><style>.cls-1{fill:none;}.cls-2{fill:#0076fa;}</style></defs><title>Fb</title><rect id="Rectangle_7527" data-name="Rectangle 7527" class="cls-1" width="24" height="24"/><g id="Group_11465" data-name="Group 11465"><path id="Path_3" data-name="Path 3" class="cls-2" d="M22.07,11.17V13l0,.2a9.92,9.92,0,0,1-3.47,6.54,9.79,9.79,0,0,1-4.69,2.23c-.25,0-.26,0-.26-.21V15.22c0-.2.05-.27.25-.27.62,0,1.24,0,1.86,0,.15,0,.23,0,.25-.2.12-.81.25-1.63.38-2.45,0-.17,0-.23-.2-.23h-2.3c-.18,0-.24-.06-.24-.24v-1.7A1.45,1.45,0,0,1,15,8.62H16.3c.15,0,.21,0,.21-.2v-2a.18.18,0,0,0-.16-.22h0A10.78,10.78,0,0,0,13.65,6a3.26,3.26,0,0,0-2.8,2,4.43,4.43,0,0,0-.34,1.72c0,.66,0,1.32,0,2,0,.37,0,.37-.38.37H8.22c-.19,0-.26.06-.25.25v2.38c0,.19.06.25.25.25.68,0,1.35,0,2,0,.19,0,.26,0,.26.25v6.53c0,.22,0,.24-.23.21l-.12,0a10,10,0,0,1-8.1-10.57,9.64,9.64,0,0,1,2.3-5.7,9.8,9.8,0,0,1,7-3.59,9.61,9.61,0,0,1,5.48,1.18,10,10,0,0,1,5,6.3C21.9,10.08,22,10.63,22.07,11.17Z"/></g></svg>