<svg id="G" xmlns="http://www.w3.org/2000/svg" viewBox="0 0 24 24"><defs><style>.cls-1{fill:none;}.cls-2{fill:#4285f4;}.cls-2,.cls-3,.cls-4,.cls-5{fill-rule:evenodd;}.cls-3{fill:#34a853;}.cls-4{fill:#fbbc05;}.cls-5{fill:#ea4335;}</style></defs><title>Ggl</title><g id="Component_64_1" data-name="Component 64 1"><rect id="Rectangle_7528" data-name="Rectangle 7528" class="cls-1" width="24" height="24"/></g><g id="logo_googleg_48dp" data-name="logo googleg 48dp"><path id="Shape" class="cls-2" d="M20.64,12.2a10.32,10.32,0,0,0-.16-1.84H12v3.48h4.84A4.15,4.15,0,0,1,15,16.56v2.26H18A8.77,8.77,0,0,0,20.64,12.2Z"/><path id="Shape-2" class="cls-3" d="M12,21a8.61,8.61,0,0,0,6-2.18l-2.91-2.26a5.43,5.43,0,0,1-7.51-1.64A5.86,5.86,0,0,1,7,13.71H4V16A9,9,0,0,0,12,21Z"/><path id="Shape-3" class="cls-4" d="M7,13.71a5.41,5.41,0,0,1,0-3.42V8H4A9,9,0,0,0,4,16Z"/><path id="Shape-4" class="cls-5" d="M12,6.58a4.83,4.83,0,0,1,3.44,1.35L18,5.34A8.63,8.63,0,0,0,12,3,9,9,0,0,0,4,8l3,2.33A5.37,5.37,0,0,1,12,6.58Z"/><path id="Shape-5" class="cls-1" d="M3,3H21V21H3Z"/></g></svg>