<svg id="Layer_1" data-name="Layer 1" xmlns="http://www.w3.org/2000/svg" viewBox="0 0 24 24"><defs><style>.cls-1{fill:red;fill-opacity:0;}.cls-2{fill:#0077b7;}</style></defs><title>Linkedin</title><g id="Linkedin"><rect id="Rectangle_7530" data-name="Rectangle 7530" class="cls-1" width="24" height="24"/><path id="linkedin-2" class="cls-2" d="M19.37,3H4.63A1.63,1.63,0,0,0,3,4.63H3V19.37A1.63,1.63,0,0,0,4.63,21H19.37A1.63,1.63,0,0,0,21,19.37h0V4.63A1.63,1.63,0,0,0,19.37,3ZM8.57,18.54A.48.48,0,0,1,8.1,19h-2a.48.48,0,0,1-.47-.48V10.09a.48.48,0,0,1,.47-.48h2a.48.48,0,0,1,.47.48ZM7.09,8.82A1.92,1.92,0,1,1,9,6.9H9A1.92,1.92,0,0,1,7.09,8.82Zm12,9.76a.44.44,0,0,1-.43.44H16.51a.44.44,0,0,1-.44-.44v-4c0-.59.18-2.59-1.54-2.59-1.34,0-1.6,1.37-1.66,2v4.57a.44.44,0,0,1-.44.44H10.34a.44.44,0,0,1-.43-.44V10.05a.44.44,0,0,1,.43-.44h2.09a.44.44,0,0,1,.44.44v.74a3,3,0,0,1,2.79-1.32c3.47,0,3.45,3.24,3.45,5v4.09Z"/></g></svg>